<svg xmlns="http://www.w3.org/2000/svg" width="194" height="25.844"><path data-name="Path 12" d="M25.37 11.684H13.413l-2.419 2.665h11.584a9.831 9.831 0 0 1-3.048 6.264 9.135 9.135 0 0 1-6.51 2.458 9.683 9.683 0 0 1-7.139-2.95 10.468 10.468 0 0 1-.049-14.435 9.426 9.426 0 0 1 7.041-2.94 10.487 10.487 0 0 1 5.408 1.377 8.79 8.79 0 0 1 3.156 3.088h3.1l.049-.02a10.559 10.559 0 0 0-4.464-5.28A13.7 13.7 0 0 0 12.87-.002a12.9 12.9 0 1 0 .069 25.8 11.768 11.768 0 0 0 8.958-3.687 12.787 12.787 0 0 0 3.51-9.174c.002-.516-.008-.939-.037-1.253z" fill="#fff"/><path data-name="Path 13" d="M96.044.484v13.983a9.072 9.072 0 0 1-2.035 6.185 6.778 6.778 0 0 1-5.379 2.34 6.906 6.906 0 0 1-5.467-2.34 8.989 8.989 0 0 1-2.065-6.185V.484h-2.92v13.983a11.676 11.676 0 0 0 2.871 8.211 9.813 9.813 0 0 0 7.581 3.127 9.664 9.664 0 0 0 7.513-3.127 11.79 11.79 0 0 0 2.832-8.211V.484z" fill="#fff"/><path data-name="Path 14" d="M137.567 14.683h.443a8.6 8.6 0 0 0 5.88-1.967 7.019 7.019 0 0 0 0-10.286 8.646 8.646 0 0 0-5.88-1.957h-11.5v2.635h11.5a5.582 5.582 0 0 1 3.766 1.229 4.372 4.372 0 0 1 0 6.46 5.625 5.625 0 0 1-3.766 1.209h-6.392l2.38 2.675h.01l9.489 10.64h3.668z" fill="#fff"/><path data-name="Path 15" d="M149.868 11.536v2.635h11.318v-2.635zm0 11.121v2.665H168v-2.665zm0-22.184v2.635h18.1V.473z" fill="#fff"/><path data-name="Path 16" d="M190.303 3.965Q186.616.484 180.244.474h-8.24v2.635h8.2q5.074 0 7.955 2.753a10.031 10.031 0 0 1 0 14.052 11.1 11.1 0 0 1-7.955 2.743h-8.2v2.665h8.24q6.372 0 10.059-3.5a12.629 12.629 0 0 0 0-17.857z" fill="#fff"/><path data-name="Rectangle 92" fill="#fff" d="M120.374.474h2.929v24.849h-2.929z"/><path data-name="Path 17" d="M120.487.484l-.108.118-22.3 24.721h3.668l18.634-20.886 1.455-1.632z" fill="#fff"/><path data-name="Path 18" d="M40.777 11.978l-5.414-1.224a5.718 5.718 0 0 1-2.8-1.242 3.186 3.186 0 0 1-.945-2.465 3.954 3.954 0 0 1 1.558-3.245 6.346 6.346 0 0 1 4.079-1.242 6.862 6.862 0 0 1 4.3 1.334 5.53 5.53 0 0 1 1.98 2.958h2.976l.125-.029A7.93 7.93 0 0 0 43.5 1.855 10.085 10.085 0 0 0 37.326 0a9.86 9.86 0 0 0-6.4 1.966A6.309 6.309 0 0 0 28.5 7.12q0 5.006 5.971 6.34l5.6 1.224a6.924 6.924 0 0 1 3.1 1.334 3.275 3.275 0 0 1 .945 2.56 4.074 4.074 0 0 1-1.616 3.356 6.947 6.947 0 0 1-4.431 1.279 8.112 8.112 0 0 1-4.895-1.427 5.755 5.755 0 0 1-2.218-3.388h-3.233a7.569 7.569 0 0 0 3.245 5.433 11.529 11.529 0 0 0 6.842 1.983 10.482 10.482 0 0 0 6.711-2 6.51 6.51 0 0 0 2.521-5.377q0-5.125-6.265-6.459z" fill="#fff"/><g data-name="Group 29"><path data-name="Path 19" d="M71.664 21.724l3.353 4.12h-4.022l-1.731-2.134-1.76-2.183.177-.118a10.09 10.09 0 0 0 1.5-1.268 9.884 9.884 0 0 0 2.861-7.218 9.986 9.986 0 0 0-2.861-7.227 9.865 9.865 0 0 0-14.071 0 9.986 9.986 0 0 0-2.861 7.227 9.884 9.884 0 0 0 2.861 7.218 9.489 9.489 0 0 0 7.06 2.92 10.09 10.09 0 0 0 3.176-.492l1.76 2.291a12.674 12.674 0 0 1-4.936.983 12.989 12.989 0 1 1 12.842-12.921 12.993 12.993 0 0 1-3.353 8.8z" fill="#fff"/></g></svg>